<?xml version="1.0" standalone="no"?>
<!DOCTYPE svg PUBLIC "-//W3C//DTD SVG 20010904//EN"
 "http://www.w3.org/TR/2001/REC-SVG-20010904/DTD/svg10.dtd">
<svg version="1.0" xmlns="http://www.w3.org/2000/svg"
 width="2084.000000pt" height="2084.000000pt" viewBox="0 0 2084.000000 2084.000000"
 preserveAspectRatio="xMidYMid meet">
<metadata>
Created by potrace 1.14, written by Peter Selinger 2001-2017
</metadata>
<g transform="translate(0.000000,2084.000000) scale(0.100000,-0.100000)"
fill="#000000" stroke="none">
<path d="M0 10420 l0 -10420 10420 0 10420 0 0 10420 0 10420 -10420 0 -10420
0 0 -10420z m15250 -2670 l720 0 0 -305 0 -305 -720 0 -720 0 0 -985 0 -985
-340 0 -340 0 0 985 0 985 -2776 2 -2775 3 3113 4341 3113 4341 3 -4038 2
-4039 720 0z m-2496 7738 c-13 -21 -7366 -10472 -7373 -10480 -4 -5 -476 344
-507 375 -2 2 1500 2139 3339 4748 l3343 4744 -3133 3 -3133 2 0 310 0 310
3736 0 c2985 0 3734 -3 3728 -12z"/>
<path d="M11672 10791 c-1195 -1666 -2172 -3032 -2172 -3035 0 -3 979 -6 2175
-6 l2175 0 0 3035 c0 1669 -2 3035 -3 3035 -2 0 -981 -1363 -2175 -3029z"/>
</g>
</svg>
