<svg xmlns="http://www.w3.org/2000/svg" viewBox="0 0 300 300"><g id="Layer_2" data-name="Layer 2"><g id="Layer_1-2" data-name="Layer 1"><path d="M236.54,300H63.46A63.47,63.47,0,0,1,0,236.54V63.46A63.47,63.47,0,0,1,63.46,0H236.54A63.47,63.47,0,0,1,300,63.46V236.54A63.47,63.47,0,0,1,236.54,300ZM63.46,11.54A52,52,0,0,0,11.54,63.46V236.54a52,52,0,0,0,51.92,51.92H236.54a52,52,0,0,0,51.92-51.92V63.46a52,52,0,0,0-51.92-51.92Z"/><path d="M182.5,224.66H84.41a3.59,3.59,0,0,1-3.11-1.8l-17-29.78a1.75,1.75,0,0,1,1.51-2.61h101a3.56,3.56,0,0,1,3.09,1.78l15.62,27.05A3.57,3.57,0,0,1,182.5,224.66Z"/><path d="M151.42,165.34H80a1.75,1.75,0,0,1-1.51-2.62l.73-1.27,35-60.6a1.74,1.74,0,0,1,3,0l35,60.6.74,1.27A1.75,1.75,0,0,1,151.42,165.34Z"/><path d="M232.14,176.91A27.89,27.89,0,0,1,232,205l-9.33,15.83L221,223.71a1.74,1.74,0,0,1-3,0L134,78.22a1.74,1.74,0,0,1,1.49-2.61l3.3,0,26.51-.24a14,14,0,0,1,12.21,7Z"/></g></g></svg>