<svg xmlns="http://www.w3.org/2000/svg" viewBox="0 0 300 300"><g id="Layer_2" data-name="Layer 2"><g id="Layer_1-2" data-name="Layer 1"><path d="M237.07,300H62.93A62.92,62.92,0,0,1,0,237.07V62.93A62.92,62.92,0,0,1,62.93,0H237.07A62.92,62.92,0,0,1,300,62.93V237.07A62.92,62.92,0,0,1,237.07,300ZM62.93,11.44A51.55,51.55,0,0,0,11.44,62.93V237.07a51.55,51.55,0,0,0,51.49,51.49H237.07a51.55,51.55,0,0,0,51.49-51.49V62.93a51.55,51.55,0,0,0-51.49-51.49Z"/><path d="M53,215.76V82.4h43.6q21.71,0,32.65,9t11,26.56a27,27,0,0,1-5.32,16.53,34.31,34.31,0,0,1-14.47,11.13,31,31,0,0,1,17.09,11.5,33,33,0,0,1,6.27,20.19q0,18-11.63,28.22T99.29,215.76Zm17.59-76.48H97.19q11.53,0,18.45-5.78t6.92-15.7q0-11-6.41-16t-19.51-5h-26Zm0,14.11v48h29q12.27,0,19.37-6.36t7.1-17.54q0-24.09-26.19-24.09Z"/><path d="M208.29,217.6q-20.14,0-32.79-13.24T162.86,169v-3.11a59.59,59.59,0,0,1,5.63-26.34,43.94,43.94,0,0,1,15.76-18.13,39.56,39.56,0,0,1,21.93-6.55q19.33,0,30,12.73T246.94,164v7.06H179.81q.36,14.66,8.56,23.67a26.9,26.9,0,0,0,20.84,9q9,0,15.2-3.67a38.15,38.15,0,0,0,10.9-9.71l10.35,8.06Q233.21,217.61,208.29,217.6Zm-2.11-88.85A22.59,22.59,0,0,0,189,136.22q-7,7.46-8.6,20.92H230v-1.28q-.74-12.92-7-20T206.18,128.75Z"/><rect x="162.75" y="82.4" width="84.21" height="13.73"/></g></g></svg>