<svg xmlns="http://www.w3.org/2000/svg" viewBox="0 0 300 300"><g id="Layer_2" data-name="Layer 2"><g id="Layer_1-2" data-name="Layer 1"><path d="M209.73,96.49l0,0,.07,0a47.18,47.18,0,0,0,1.8-12.62,47.8,47.8,0,0,0-3.18-17.38,58.58,58.58,0,0,0-29.77,11.08,126.34,126.34,0,0,0-15.54-2.19c-4-.25-8.24-.38-12.67-.35a179.17,179.17,0,0,0-28.61,2.54A58.58,58.58,0,0,0,92,66.49a47.36,47.36,0,0,0-1.38,30c-10.07,12.9-11,27.46-11.08,31.85-.12,4.76,0,22.84,12.46,36.46,9.66,10.61,22.48,13.73,37.71,14.64a20.69,20.69,0,0,0-6.39,12.13c0,1.15-.11,2.31-.17,3.46-15,3.77-22.56,1.05-26.77-2.31-5.47-4.36-5.81-10.31-14.53-15.46-1.83-1.08-8.68-4.87-12-2.54a2.48,2.48,0,0,0-1.16,1.62c-.17,1.71,2.63,3.08,4.85,4.61,1.56,1.09,3.5,3.34,7.38,7.85,7.34,8.53,4.82,12.23,10.16,17.08,6.44,5.84,16,5.8,22.38,5.77a49.57,49.57,0,0,0,9.69-1v39.88a3,3,0,0,0,3,3h47.5a3,3,0,0,0,3-3q-.06-29.46-.13-58.93a15.5,15.5,0,0,0-2-6.34h0a21,21,0,0,0-4-5.46c13.56-.59,27.1-3.41,37.37-15,12.33-13.89,12.78-31.86,12.69-36.46C220.48,123.58,219.58,109.21,209.73,96.49Z"/><path d="M281.41,18.59A63,63,0,0,0,236.54,0H63.46A63.47,63.47,0,0,0,0,63.46V236.54A63.47,63.47,0,0,0,63.46,300H236.54A63.47,63.47,0,0,0,300,236.54V63.46A63,63,0,0,0,281.41,18.59Zm7,218a52,52,0,0,1-51.92,51.92H63.46a52,52,0,0,1-51.92-51.92V63.46A52,52,0,0,1,63.46,11.54H236.54a52,52,0,0,1,51.92,51.92Z"/></g></g></svg>