<svg xmlns="http://www.w3.org/2000/svg" viewBox="0 0 300 300"><g id="Layer_2" data-name="Layer 2"><g id="Layer_1-2" data-name="Layer 1"><path d="M236.54,300H63.46A63.47,63.47,0,0,1,0,236.54V63.46A63.47,63.47,0,0,1,63.46,0H236.54A63.47,63.47,0,0,1,300,63.46V236.54A63.47,63.47,0,0,1,236.54,300ZM63.46,11.54A52,52,0,0,0,11.54,63.46V236.54a52,52,0,0,0,51.92,51.92H236.54a52,52,0,0,0,51.92-51.92V63.46a52,52,0,0,0-51.92-51.92Z"/><path d="M150,222.69a72.69,72.69,0,1,1,51.4-21.29A72.21,72.21,0,0,1,150,222.69Zm0-133.84A61.15,61.15,0,1,0,211.15,150,61.22,61.22,0,0,0,150,88.85Z"/><circle cx="238.9" cy="63.52" r="14.42"/></g></g></svg>