<svg xmlns="http://www.w3.org/2000/svg" viewBox="0 0 300 300"><g id="Layer_2" data-name="Layer 2"><g id="Layer_1-2" data-name="Layer 1"><path d="M236.54,300H63.46A63.47,63.47,0,0,1,0,236.54V63.46A63.47,63.47,0,0,1,63.46,0H236.54A63.47,63.47,0,0,1,300,63.46V236.54A63.47,63.47,0,0,1,236.54,300ZM63.46,11.54A52,52,0,0,0,11.54,63.46V236.54a52,52,0,0,0,51.92,51.92H236.54a52,52,0,0,0,51.92-51.92V63.46a52,52,0,0,0-51.92-51.92Z"/><path d="M240.54,93.84a74.14,74.14,0,0,1-21.33,5.85,37.24,37.24,0,0,0,16.33-20.56,74.36,74.36,0,0,1-23.59,9A37.18,37.18,0,0,0,148.63,122,105.52,105.52,0,0,1,72.06,83.22a37.2,37.2,0,0,0,11.5,49.6,36.94,36.94,0,0,1-16.82-4.65,37.19,37.19,0,0,0,29.79,36.9,37.17,37.17,0,0,1-16.78.63,37.18,37.18,0,0,0,34.71,25.8,74.65,74.65,0,0,1-55,15.39,105.16,105.16,0,0,0,57,16.69c69,0,108-58.26,105.6-110.51A75.63,75.63,0,0,0,240.54,93.84Z"/></g></g></svg>